<svg xmlns="http://www.w3.org/2000/svg" width="16.906" height="23.338" viewBox="0 0 16.906 23.338">
  <path id="Path_1460" d="M26.946,6.506a8.487,8.487,0,0,0-5.278,15.106v7.594a.661.661,0,0,0,.329.556.675.675,0,0,0,.644-.015L26.946,27l4.3,2.752a.636.636,0,0,0,.981-.542V21.6a8.486,8.486,0,0,0-5.286-15.1Zm0,1.278A7.211,7.211,0,1,1,19.766,15a7.183,7.183,0,0,1,7.18-7.211Zm-.067.85a.633.633,0,0,0-.5.346l-1.55,3.135-3.467.5a.625.625,0,0,0-.509.429.641.641,0,0,0,.157.654l2.508,2.421-.592,3.443a.657.657,0,0,0,.554.737.622.622,0,0,0,.367-.075l3.1-1.616,3.1,1.616a.643.643,0,0,0,.666-.045.652.652,0,0,0,.255-.617l-.592-3.444,2.508-2.421a.657.657,0,0,0,.157-.654.636.636,0,0,0-.517-.429l-3.467-.5L27.515,8.98a.653.653,0,0,0-.636-.346Zm.067,2.068,1.123,2.271a.654.654,0,0,0,.487.338l2.516.369-1.82,1.767a.648.648,0,0,0-.195.556l.442,2.5-2.261-1.18a.617.617,0,0,0-.584,0l-2.261,1.18.434-2.5a.643.643,0,0,0-.179-.556L22.82,13.679l2.516-.369a.654.654,0,0,0,.487-.338L26.946,10.7Zm-4.013,11.76a8.386,8.386,0,0,0,8.026,0v5.587L27.283,25.7a.622.622,0,0,0-.681,0l-3.669,2.346V22.462Z" transform="translate(-18.493 -6.506)"/>
</svg>
