<svg xmlns="http://www.w3.org/2000/svg" width="11.551" height="10.061" viewBox="0 0 11.551 10.061">
  <g id="noun_Arrow_1921075" transform="translate(14.126 -22) rotate(90)">
    <g id="Group_2062" data-name="Group 2062" transform="translate(22 2.575)">
      <path id="Path_1301" data-name="Path 1301" d="M27.01,8.681a1.055,1.055,0,0,0,.752-.3l3.99-3.99a1.063,1.063,0,1,0-1.5-1.5L27.028,6.1,23.807,2.884a1.069,1.069,0,0,0-1.5,0,1.04,1.04,0,0,0-.3.752,1.086,1.086,0,0,0,.3.752l3.955,3.99A1.055,1.055,0,0,0,27.01,8.681Z" transform="translate(-22 -2.575)" fill="#24ac70"/>
      <path id="Path_1302" data-name="Path 1302" d="M27.762,38.777l3.99-3.99a1.063,1.063,0,1,0-1.5-1.5L27.028,36.5l-3.221-3.221a1.069,1.069,0,0,0-1.5,0,1.04,1.04,0,0,0-.3.752,1.086,1.086,0,0,0,.3.752l3.99,3.99A1.026,1.026,0,0,0,27.762,38.777Z" transform="translate(-22 -27.535)" fill="#24ac70"/>
    </g>
  </g>
</svg>
