<svg xmlns="http://www.w3.org/2000/svg" width="14.757" height="22.297" viewBox="0 0 14.757 22.297">
    <path id="Path_1439"
        d="M14.778,4.315c-4.072,0-7.374,4.059-7.378,9.063v7a.679.679,0,0,0,.6.737h3.836a3.233,3.233,0,0,0,2.942,2.97,3.233,3.233,0,0,0,2.942-2.97h3.836a.679.679,0,0,0,.6-.737v-7c0-5-3.306-9.059-7.378-9.063Zm0,18.269a1.865,1.865,0,0,1-1.7-1.474h3.4a1.865,1.865,0,0,1-1.7,1.474Zm6.179-2.948H8.6V13.37c0-4.193,2.766-7.592,6.179-7.592s6.179,3.4,6.179,7.592ZM12.478,2.527a.679.679,0,0,1,.6-.737h3.4a.679.679,0,0,1,.6.737.679.679,0,0,1-.6.737h-3.4A.679.679,0,0,1,12.478,2.527Z"
        transform="translate(-7.4 -1.79)" fill="#ff702e" />
</svg>
