<svg xmlns="http://www.w3.org/2000/svg" width="22.481" height="24.416" viewBox="0 0 22.481 24.416">
    <g id="Group_3007" transform="translate(0)">
        <path id="Path_1367"
            d="M28.121,15.885V12.249A3.648,3.648,0,0,0,24.4,8.785h0v.831h0v.836h0v.476a2.212,2.212,0,0,1-4.424,0V8.78H13.711v2.151a2.212,2.212,0,0,1-4.424,0v-.469h0V9.621h0V8.79h0A3.633,3.633,0,0,0,5.64,12.246V27.435a3.831,3.831,0,0,0,3.826,3.826H24.3a3.834,3.834,0,0,0,3.826-3.826Zm-1.665,11.55A2.164,2.164,0,0,1,24.3,29.6H9.466A2.164,2.164,0,0,1,7.3,27.435V15.885H26.457Z"
            transform="translate(-5.64 -6.845)" fill="#24ac70" />
        <path id="Path_1368" d="M25,3.463V6.25a.963.963,0,0,0,1.926,0V3.463a.963.963,0,0,0-1.926,0Z"
            transform="translate(-20.094 -2.5)" fill="#24ac70" />
        <path id="Path_1369"
            d="M68.163,2.5a.963.963,0,0,0-.963.963V6.25a.963.963,0,0,0,1.926,0V3.463A.963.963,0,0,0,68.163,2.5Z"
            transform="translate(-51.601 -2.5)" fill="#24ac70" />
    </g>
</svg>
