<svg xmlns="http://www.w3.org/2000/svg" width="24.213" height="24.213" viewBox="0 0 24.213 24.213">
  <g id="Group_2539" data-name="Group 2539" transform="translate(-346.302 104.628) rotate(-90)">
    <path id="Path_1593" data-name="Path 1593" d="M100.694,14H91.519A7.516,7.516,0,0,0,84,21.519v9.175a7.516,7.516,0,0,0,7.519,7.519h9.175a7.516,7.516,0,0,0,7.519-7.519V21.519A7.516,7.516,0,0,0,100.694,14ZM98.528,29.19a1.432,1.432,0,0,1,0,2.064,1.487,1.487,0,0,1-1.045.433,1.533,1.533,0,0,1-1.045-.433l-4.129-4.1a1.432,1.432,0,0,1,0-2.064l4.129-4.129a1.432,1.432,0,0,1,2.064,0,1.454,1.454,0,0,1,0,2.064l-3.058,3.084Z" transform="translate(118.628 262.302) rotate(90)" fill="#24ac70"/>
  </g>
</svg>
