<svg xmlns="http://www.w3.org/2000/svg" width="18.372" height="21.892" viewBox="0 0 18.372 21.892"><g transform="translate(0)"><path d="M174.324,169.1h-8.366a3.209,3.209,0,0,1-3.206-3.206V154.06a3.209,3.209,0,0,1,3.206-3.206h8.366a3.209,3.209,0,0,1,3.206,3.206v11.83A3.209,3.209,0,0,1,174.324,169.1Zm-8.366-16.4a1.36,1.36,0,0,0-1.363,1.364v11.83a1.36,1.36,0,0,0,1.363,1.364h8.366a1.36,1.36,0,0,0,1.364-1.364V154.06a1.36,1.36,0,0,0-1.364-1.364Z" transform="translate(-162.752 -147.205)"/><path d="M266.077,98.631a.912.912,0,0,1-.921-.921V86.856a3.46,3.46,0,0,0-3.464-3.464H254.32a.921.921,0,0,1,0-1.843h7.371A5.308,5.308,0,0,1,267,86.856V97.71a.924.924,0,0,1-.921.921Z" transform="translate(-248.627 -81.549)"/></g></svg>