<svg xmlns="http://www.w3.org/2000/svg" width="22.541" height="19.013" viewBox="0 0 22.541 19.013">
  <path id="Path_1459" d="M11.276,11.179a1.762,1.762,0,0,1-.719-.153L.652,6.6a1.047,1.047,0,0,1-.646-.949,1.06,1.06,0,0,1,.625-1L10.515.183a1.846,1.846,0,0,1,1.523,0L21.92,4.654a1.064,1.064,0,0,1-.054,1.962L12,11.025A1.752,1.752,0,0,1,11.276,11.179ZM1.911,5.622l9.22,4.117a.355.355,0,0,0,.29,0L20.64,5.622,11.457,1.468a.437.437,0,0,0-.36,0h0Zm9.365,13.409A10.743,10.743,0,0,1,4.15,16.373a1.95,1.95,0,0,1-.625-1.381V7.757a.7.7,0,1,1,1.409,0v7.235a.587.587,0,0,0,.212.384,9.382,9.382,0,0,0,6.13,2.246,9.087,9.087,0,0,0,6.092-2.2.893.893,0,0,0,.25-.426V7.757a.7.7,0,1,1,1.409,0v7.235a2.05,2.05,0,0,1-.586,1.339,10.3,10.3,0,0,1-7.165,2.7ZM14.8,14.1a.7.7,0,0,1-.7-.7V9.458L10.778,6.141a.7.7,0,0,1,1-1L15.3,8.668a.7.7,0,0,1,.206.5v4.228A.7.7,0,0,1,14.8,14.1Z" transform="translate(-0.005 -0.019)"/>
</svg>
