<svg xmlns="http://www.w3.org/2000/svg" width="24.342" height="29" viewBox="0 0 24.342 29"><path d="M32.375,10.338l-4.2-.44V6.589a.519.519,0,0,0-.518-.518H18.2L17.936,5.5A2.584,2.584,0,0,0,14.5,4.244l-.946.436a2.554,2.554,0,0,0-1.3,1.391H9.015a.519.519,0,0,0-.518.518v21.75a.519.519,0,0,0,.518.518h2.149l-.171,1.621a.516.516,0,0,0,.461.57l18.539,1.947A.212.212,0,0,0,30.05,33a.516.516,0,0,0,.513-.466L32.836,10.9A.513.513,0,0,0,32.375,10.338ZM13.991,5.62l.946-.436A1.547,1.547,0,0,1,17,5.933l.065.138H13.43A1.522,1.522,0,0,1,13.991,5.62Zm-4.458,22.2V7.107h2.542a2.588,2.588,0,0,0,.231,1.016l3.5,7.509a2.058,2.058,0,0,0,1.17,1.071,2.073,2.073,0,0,0,2.585-2.824L17.154,8.716a.518.518,0,1,0-.939.438l2.407,5.161a1.036,1.036,0,0,1-1.293,1.414,1.028,1.028,0,0,1-.585-.535l-3.5-7.505a1.551,1.551,0,0,1-.137-.582H27.14V27.821H9.533Zm20.056,4.091L12.075,30.074l.129-1.217H27.657a.519.519,0,0,0,.518-.518v-17.4l3.578.378Z" transform="translate(-8.497 -3.999)" fill="#2c2c2c"/><path d="M16.015,34.036H27.408a.518.518,0,1,0,0-1.036H16.015a.518.518,0,1,0,0,1.036Z" transform="translate(-11.872 -17.982)" fill="#2c2c2c"/><path d="M16.015,39.036H27.408a.518.518,0,0,0,0-1.036H16.015a.518.518,0,0,0,0,1.036Z" transform="translate(-11.872 -20.393)" fill="#2c2c2c"/><path d="M27.408,44.036a.518.518,0,0,0,0-1.036H16.015a.518.518,0,0,0,0,1.036Z" transform="translate(-11.872 -22.804)" fill="#2c2c2c"/></svg>