<svg xmlns="http://www.w3.org/2000/svg" width="560.004" height="560.004" viewBox="0 0 560.004 560.004">
  <path id="Path_1594" data-name="Path 1594" d="M350,0A280,280,0,1,0,490,37.512,280.008,280.008,0,0,0,350,0ZM327.715,134.71h44.57a13.157,13.157,0,0,1,13.188,13.184v96.637H482.11a13.157,13.157,0,0,1,13.184,13.188v44.57a13.157,13.157,0,0,1-13.184,13.188H385.473v96.637A13.157,13.157,0,0,1,372.285,425.3h-44.57a13.157,13.157,0,0,1-13.188-13.184V315.477H217.89a13.157,13.157,0,0,1-13.184-13.188v-44.57a13.157,13.157,0,0,1,13.184-13.188h96.637V147.894a13.157,13.157,0,0,1,13.188-13.184Z" transform="translate(-69.998)" fill="#24ac70"/>
</svg>
