<svg xmlns="http://www.w3.org/2000/svg" width="22.222" height="17.452" viewBox="0 0 22.222 17.452">
  <g id="Group_3006" transform="translate(0 0)">
    <path id="Path_1548" d="M32.682,56.425a1.508,1.508,0,0,0-.974.873c-.032.1-.169.847-.233,1.2a.15.15,0,0,0,.148.178h6.809a.149.149,0,0,0,.075-.02.15.15,0,0,0,.073-.158c-.063-.349-.2-1.1-.233-1.2a1.507,1.507,0,0,0-.974-.873l-.164-.065-1.11-.43a1.165,1.165,0,0,1-2.146,0l-1.11.43Z" transform="translate(-26.286 -48.673)" fill="#fff"/>
    <path id="Path_1549" d="M43.969,36.611a1.368,1.368,0,0,0,1.342-1.106l.209-1.076a1.44,1.44,0,0,0-1.427-1.635h-.248a1.44,1.44,0,0,0-1.427,1.635l.209,1.076A1.368,1.368,0,0,0,43.969,36.611Z" transform="translate(-35.227 -29.752)" fill="#fff"/>
    <path id="Path_1550" d="M74.032,51.516a1.159,1.159,0,0,0-.625-.841c-1.086-.542-3.47-1.342-3.47-1.342v-.787L70,48.5a2.277,2.277,0,0,0,.864-1.447l.014-.084h.065a.879.879,0,0,0,.814-.548.955.955,0,0,0,.12-.464.881.881,0,0,0-.063-.326.456.456,0,0,0-.176-.284l-.22-.134.055-.239a2.764,2.764,0,0,0-2.746-3.335c-.044,0-.087,0-.13,0s-.086,0-.13,0a2.764,2.764,0,0,0-2.746,3.335l.055.239-.22.134a.457.457,0,0,0-.177.284.888.888,0,0,0-.063.326.959.959,0,0,0,.12.464.88.88,0,0,0,.814.548h.065l.013.084A2.276,2.276,0,0,0,67.2,48.5l.066.05v.787s-2.384.8-3.47,1.342a1.158,1.158,0,0,0-.625.841,25.245,25.245,0,0,0-.219,2.919h11.3a25.241,25.241,0,0,0-.219-2.919Z" transform="translate(-52.029 -36.983)" fill="#fff"/>
    <path id="Path_1551" d="M16.57,27.7a3.574,3.574,0,0,1-.3-.588,2.12,2.12,0,0,1-.228-.134H4.133V17.582a.277.277,0,0,1,.239-.3H19.109a.278.278,0,0,1,.239.3v1.911l.061,0h.321a4.386,4.386,0,0,1,.752.084V17.148a1.056,1.056,0,0,0-1.056-1.056H4.055A1.056,1.056,0,0,0,3,17.148V27.762a1.057,1.057,0,0,0,1.056,1.054H9.322l-.983,2.511a.25.25,0,0,0,.232.341h4.183c.035-.435.082-.881.146-1.255a2.423,2.423,0,0,1,1.3-1.754C14.819,28.352,15.788,27.98,16.57,27.7Z" transform="translate(-2.999 -16.092)" fill="#fff"/>
  </g>
</svg>
