<svg xmlns="http://www.w3.org/2000/svg" width="26.964" height="28.078" viewBox="0 0 26.964 28.078"><g transform="translate(-104.491 -12.14)"><g transform="translate(-0.233 7.016)"><path d="M11.663,24.045h-7.9A3.758,3.758,0,0,1,0,20.316V5.517A3.556,3.556,0,0,1,3.59,2.149V4.235a2.179,2.179,0,0,0,4.357,0v-2.1h6.175V4.233a2.178,2.178,0,0,0,4.356,0V2.145A3.952,3.952,0,0,1,21.07,3.163,3.189,3.189,0,0,1,22.139,5.52v7.061a8.679,8.679,0,0,0-1.64-.3V9.062H1.639V20.316a2.122,2.122,0,0,0,2.129,2.106h7.45a8.63,8.63,0,0,0,.444,1.621ZM16.25,5.212a1.066,1.066,0,0,1-1.065-1.065V1.065a1.064,1.064,0,1,1,2.129,0V4.147A1.065,1.065,0,0,1,16.25,5.212Zm-10.41,0A1.066,1.066,0,0,1,4.775,4.147V1.065a1.065,1.065,0,0,1,2.13,0V4.147A1.067,1.067,0,0,1,5.84,5.212Z" transform="translate(104.725 5.124)" fill="#fff"/><circle cx="7.19" cy="7.19" r="7.19" transform="translate(117.309 18.822)" fill="#fff"/></g><path d="M197.561,32.281c-.585.91-1.2,1.788-1.842,2.644-.52.683-1.268,1.571-2.265,2.655a.316.316,0,0,1-.368.076.326.326,0,0,1-.163-.433l1.474-3.36a.256.256,0,0,0,.022-.087.217.217,0,0,0-.217-.217h-2.525a.218.218,0,0,1-.119-.033.223.223,0,0,1-.065-.3c.585-.889,1.2-1.756,1.842-2.59.509-.672,1.268-1.539,2.254-2.6a.313.313,0,0,1,.369-.065.329.329,0,0,1,.163.433l-1.452,3.24a.256.256,0,0,0-.022.087.217.217,0,0,0,.217.217h2.525a.218.218,0,0,1,.119.033.222.222,0,0,1,.054.3Z" transform="translate(-70.316 0.343)" fill="#24ac70"/></g></svg>