<svg xmlns="http://www.w3.org/2000/svg" width="24.56" height="7.223" viewBox="0 0 24.56 7.223">
  <g id="Group_2095" data-name="Group 2095" transform="translate(-1 20.223) rotate(-90)">
    <path id="Path_1340" data-name="Path 1340" d="M16.612,1a3.612,3.612,0,1,0,3.612,3.612A3.613,3.613,0,0,0,16.612,1Zm0,5.779a2.167,2.167,0,1,1,2.167-2.167A2.173,2.173,0,0,1,16.612,6.779Z" fill="#24ac70"/>
    <path id="Path_1341" data-name="Path 1341" d="M16.612,13a3.612,3.612,0,1,0,3.612,3.612A3.613,3.613,0,0,0,16.612,13Zm0,5.779a2.167,2.167,0,1,1,2.167-2.167A2.173,2.173,0,0,1,16.612,18.779Z" transform="translate(0 -3.332)" fill="#24ac70"/>
    <path id="Path_1342" data-name="Path 1342" d="M16.612,25a3.612,3.612,0,1,0,3.612,3.612A3.613,3.613,0,0,0,16.612,25Zm0,5.779a2.167,2.167,0,1,1,2.167-2.167A2.173,2.173,0,0,1,16.612,30.779Z" transform="translate(0 -6.664)" fill="#24ac70"/>
  </g>
</svg>
