<svg xmlns="http://www.w3.org/2000/svg" width="19.538" height="15.513" viewBox="0 0 19.538 15.513"><g transform="translate(0 -4)"><path d="M19.537,10v4.121A2.479,2.479,0,0,1,17.3,16.787H14.685l-.407,1.464A1.834,1.834,0,0,1,12.593,19.7a1.628,1.628,0,0,1-1.221-.582,1.573,1.573,0,0,1-2.442,0c-.008-.01-.008-.01-.008-.019a1.62,1.62,0,0,1-1.213.6,1.75,1.75,0,0,1-1.563-1.134,7.106,7.106,0,0,1-1.417.407L.7,19.686a.282.282,0,0,1-.09.01.651.651,0,0,1-.6-.621.715.715,0,0,1,.513-.824l4.038-.727a6.036,6.036,0,0,0,2.5-1.047L9.1,15a1.174,1.174,0,0,0,.464-.96,1.051,1.051,0,0,0-.953-1.134,3.435,3.435,0,0,0-1.474.339L3.89,14.8a.593.593,0,0,1-.8-.407.8.8,0,0,1,.342-.95l.635-.3V10ZM8.392,17.214l-.708.5a4.682,4.682,0,0,1-.4.262.516.516,0,0,0,.423.262.56.56,0,0,0,.521-.446Zm2.565-.427H9.8l-.024.1-.138.494a.748.748,0,0,0,.073.591.528.528,0,0,0,.961-.175l.236-.844Zm2.442,0H12.243l-.163.591a.748.748,0,0,0,.073.591.528.528,0,0,0,.961-.175Z" transform="translate(0 -0.183)" fill="#4ed69a"/><path d="M19.538,6.666V7.878H4.069V6.666a1.253,1.253,0,0,1,.008-.175A3.888,3.888,0,0,0,1.391,8.518l-.277.494a.591.591,0,0,1-.5.32.538.538,0,0,1-.342-.126A.818.818,0,0,1,.1,8.2l.269-.485a5.038,5.038,0,0,1,4.2-2.744A2.142,2.142,0,0,1,6.308,4H17.3A2.479,2.479,0,0,1,19.538,6.666Z" transform="translate(0)" fill="#4ed69a"/></g></svg>