<svg xmlns="http://www.w3.org/2000/svg" width="24.219" height="24.219" viewBox="0 0 24.219 24.219"><g transform="translate(-179.786 -111.781)"><path d="M12.87,24.219H11.35a2.232,2.232,0,0,1-2.23-2.23v-.514a9.778,9.778,0,0,1-1.518-.63l-.364.364a2.23,2.23,0,0,1-3.153,0L3.01,20.135a2.229,2.229,0,0,1,0-3.153l.364-.364a9.778,9.778,0,0,1-.63-1.518H2.23A2.232,2.232,0,0,1,0,12.87V11.35A2.232,2.232,0,0,1,2.23,9.12h.514A9.78,9.78,0,0,1,3.374,7.6L3.01,7.237a2.23,2.23,0,0,1,0-3.153L4.084,3.01a2.229,2.229,0,0,1,3.153,0l.364.364a9.787,9.787,0,0,1,1.518-.63V2.23A2.232,2.232,0,0,1,11.35,0h1.52A2.232,2.232,0,0,1,15.1,2.23v.514a9.777,9.777,0,0,1,1.518.63l.364-.364a2.23,2.23,0,0,1,3.153,0L21.21,4.084a2.229,2.229,0,0,1,0,3.153l-.364.364a9.778,9.778,0,0,1,.63,1.518h.514a2.232,2.232,0,0,1,2.23,2.23v1.52a2.232,2.232,0,0,1-2.23,2.23h-.514a9.78,9.78,0,0,1-.63,1.518l.364.364a2.23,2.23,0,0,1,0,3.153L20.135,21.21a2.229,2.229,0,0,1-3.153,0l-.364-.364a9.787,9.787,0,0,1-1.518.63v.514A2.232,2.232,0,0,1,12.87,24.219ZM7.839,19.355a8.364,8.364,0,0,0,2.168.9.71.71,0,0,1,.532.687V21.99a.811.811,0,0,0,.81.81h1.52a.811.811,0,0,0,.81-.81V20.942a.709.709,0,0,1,.532-.687,8.364,8.364,0,0,0,2.168-.9.71.71,0,0,1,.863.109l.742.742a.81.81,0,0,0,1.146,0l1.075-1.075a.81.81,0,0,0,0-1.146l-.742-.742a.71.71,0,0,1-.109-.863,8.362,8.362,0,0,0,.9-2.168.71.71,0,0,1,.687-.532H21.99a.811.811,0,0,0,.81-.81V11.35a.811.811,0,0,0-.81-.81H20.942a.71.71,0,0,1-.687-.532,8.364,8.364,0,0,0-.9-2.168.71.71,0,0,1,.109-.863l.742-.742a.81.81,0,0,0,0-1.146L19.132,4.013a.81.81,0,0,0-1.146,0l-.742.742a.71.71,0,0,1-.863.109,8.364,8.364,0,0,0-2.168-.9.71.71,0,0,1-.532-.687V2.23a.811.811,0,0,0-.81-.81H11.35a.811.811,0,0,0-.81.81V3.277a.709.709,0,0,1-.532.687,8.364,8.364,0,0,0-2.168.9.71.71,0,0,1-.863-.109l-.742-.742a.81.81,0,0,0-1.146,0L4.013,5.088a.81.81,0,0,0,0,1.146l.742.742a.71.71,0,0,1,.109.863,8.362,8.362,0,0,0-.9,2.168.71.71,0,0,1-.687.532H2.23a.811.811,0,0,0-.81.81v1.52a.811.811,0,0,0,.81.81H3.277a.71.71,0,0,1,.687.532,8.364,8.364,0,0,0,.9,2.168.71.71,0,0,1-.109.863l-.742.742a.81.81,0,0,0,0,1.146l1.075,1.075a.81.81,0,0,0,1.146,0l.742-.742a.713.713,0,0,1,.863-.109Z" transform="translate(179.786 111.781)" fill="#24ac70"/><path d="M149.87,155.139a5.27,5.27,0,1,1,5.27-5.27A5.276,5.276,0,0,1,149.87,155.139Zm0-9.12a3.85,3.85,0,1,0,3.85,3.85A3.855,3.855,0,0,0,149.87,146.019Z" transform="translate(42.026 -25.979)" fill="#24ac70"/></g></svg>