<svg xmlns="http://www.w3.org/2000/svg" width="14.558" height="20.381" viewBox="0 0 14.558 20.381"><g transform="translate(-6 -2)"><path d="M15.669,16.584a6.789,6.789,0,0,0,.885-2.834H14.785a6.789,6.789,0,0,0,.884,2.834Z" transform="translate(-2.391 -3.197)" fill="#390404"/><path d="M10.826,13.75a3.807,3.807,0,0,0,2.676,3.1,7.949,7.949,0,0,1-.888-3.1Z" transform="translate(-1.313 -3.197)" fill="#390404"/><path d="M14.781,11.192h1.774a6.781,6.781,0,0,0-.887-2.83,6.78,6.78,0,0,0-.887,2.83Z" transform="translate(-2.389 -1.731)" fill="#390404"/><path d="M13.5,8a3.807,3.807,0,0,0-2.672,3.1h1.794A7.845,7.845,0,0,1,13.5,8Z" transform="translate(-1.313 -1.631)" fill="#390404"/><path d="M17.5,8a7.845,7.845,0,0,1,.879,3.1h1.793A3.807,3.807,0,0,0,17.5,8Z" transform="translate(-3.13 -1.631)" fill="#390404"/><path d="M18.374,2H8.184A2.186,2.186,0,0,0,6,4.184V20.2a2.186,2.186,0,0,0,2.184,2.184h10.19A2.186,2.186,0,0,0,20.558,20.2V4.184A2.186,2.186,0,0,0,18.374,2ZM16.19,18.559H10.367a.546.546,0,1,1,0-1.092H16.19a.546.546,0,0,1,0,1.092ZM13.279,14.92a4.913,4.913,0,1,1,4.913-4.913A4.913,4.913,0,0,1,13.279,14.92Z" fill="#390404"/><path d="M17.5,16.848a3.807,3.807,0,0,0,2.676-3.1H18.386A7.949,7.949,0,0,1,17.5,16.848Z" transform="translate(-3.129 -3.197)" fill="#390404"/></g></svg>