<svg xmlns="http://www.w3.org/2000/svg" width="16.622" height="18.997" viewBox="0 0 16.622 18.997"><g transform="translate(0 8.905)"><path d="M6.208,19.4H5.415v1.182h.793a.591.591,0,0,0,0-1.182Z" transform="translate(-2.2 -16.789)" fill="#e60000"/><path d="M11.584,19.442H10.8v2.126h.788A1.067,1.067,0,0,0,11.584,19.442Z" transform="translate(-4.387 -16.805)" fill="#e60000"/><path d="M13.654,15H.594A.6.6,0,0,0,0,15.594V21.53a.6.6,0,0,0,.594.594h13.06a.6.6,0,0,0,.594-.594V15.594A.6.6,0,0,0,13.654,15ZM4.007,19.389H3.215v.627a.3.3,0,0,1-.3.327.32.32,0,0,1-.322-.328V17.343a.327.327,0,0,1,.322-.328h1.1a1.187,1.187,0,0,1,0,2.374Zm3.232.954H6.11a.3.3,0,0,1-.328-.294v-2.7a.322.322,0,0,1,.328-.294H7.2A1.643,1.643,0,0,1,7.24,20.343Zm4.23-2.668H10.087v.755H11.3a.367.367,0,0,1,.342.337.329.329,0,0,1-.342.284h-1.21v1a.282.282,0,0,1-.284.294.3.3,0,0,1-.337-.294v-2.7a.3.3,0,0,1,.337-.294h1.666a.3.3,0,0,1,.332.294A.327.327,0,0,1,11.469,17.675Z" transform="translate(0 -15)" fill="#e60000"/></g><path d="M17.654,4.5,13.744.594A2.22,2.22,0,0,0,12.311,0H5.781A1.783,1.783,0,0,0,4,1.781V7.718a.594.594,0,0,0,1.187,0V1.781a.594.594,0,0,1,.594-.594h5.343a1.187,1.187,0,0,1,1.187,1.187V4.6a1.34,1.34,0,0,0,1.336,1.336h2.226A1.187,1.187,0,0,1,17.06,7.124V17.216a.594.594,0,0,1-.594.594H5.781a.594.594,0,0,1-.594-.594.594.594,0,0,0-1.187,0A1.783,1.783,0,0,0,5.781,19H16.467a1.783,1.783,0,0,0,1.781-1.781V5.937A2.222,2.222,0,0,0,17.654,4.5Z" transform="translate(-1.625)" fill="#e60000"/></svg>