<svg xmlns="http://www.w3.org/2000/svg" width="29.527" height="27.406" viewBox="0 0 29.527 27.406">
  <path id="qr-code" d="M-.29,2.155a.836.836,0,0,1-.865.8.836.836,0,0,1-.865-.8V-1.217a.836.836,0,0,1,.865-.8H2.478a.836.836,0,0,1,.865.8.836.836,0,0,1-.865.8H-.29ZM11.648,19.391a.805.805,0,1,1,0-1.606h.75a.805.805,0,1,1,0,1.606Zm.634-10.705a.867.867,0,0,1-1.73,0v-.7a.867.867,0,0,1,1.73,0Zm5.306,8.993a.805.805,0,1,1,0-1.606h.75a.805.805,0,1,1,0,1.606ZM-.261,12.486H3.765a.739.739,0,0,0-.017.161v2.409a.836.836,0,0,0,.865.8.836.836,0,0,0,.865-.8V12.646a.739.739,0,0,0-.017-.161h7.63v.91H8.534a.805.805,0,1,0,0,1.606h5.421a.836.836,0,0,0,.865-.8V12.486h3.229v2.355a.867.867,0,0,0,1.73,0V12.486h5.969a.805.805,0,1,0,0-1.606H21.8V9.328h.865a.805.805,0,1,0,0-1.606H18.338a.805.805,0,1,0,0,1.606h1.73V10.88H14.82V8.793a.867.867,0,0,0-1.73,0V10.88H-.261a.836.836,0,0,0-.865.8.836.836,0,0,0,.865.8ZM14.7,2.637a.867.867,0,0,1,1.73,0V6.866a.867.867,0,0,1-1.73,0Zm-5.133.321h1.961V2.637a.867.867,0,0,1,1.73,0V5.313a.867.867,0,0,1-1.73,0V4.564H9.572v.375a.867.867,0,0,1-1.73,0v-2.3a.867.867,0,0,1,1.73,0ZM2.651,9.274a.805.805,0,1,1,0-1.606h6.4a.805.805,0,1,1,0,1.606ZM21.509,19.926v.8a.867.867,0,0,0,1.73,0V15.912a.867.867,0,0,0-1.73,0V18.32H18.626a.805.805,0,1,0,0,1.606Zm-8.823,1.606h2.6a.836.836,0,0,0,.865-.8V16.607a.867.867,0,0,0-1.73,0v3.319h-1.73a.805.805,0,1,0,0,1.606ZM7.9,16.661a.867.867,0,0,1,1.73,0v2.355a.867.867,0,0,1-1.73,0Zm-5.248-.107H6.285a.836.836,0,0,1,.865.8v3.372a.836.836,0,0,1-.865.8H2.652a.836.836,0,0,1-.865-.8V17.357a.836.836,0,0,1,.865-.8ZM5.42,18.16h-1.9v1.766h1.9ZM19.2,1.834h3.633a.836.836,0,0,1,.865.8V6.009a.836.836,0,0,1-.865.8H19.2a.836.836,0,0,1-.865-.8V2.637A.836.836,0,0,1,19.2,1.834ZM21.971,3.44h-1.9V5.206h1.9ZM2.652,1.834a.836.836,0,0,0-.865.8V6.009a.836.836,0,0,0,.865.8H6.285a.836.836,0,0,0,.865-.8V2.637a.836.836,0,0,0-.865-.8ZM5.42,3.44V5.206h-1.9V3.44ZM25.777,21.211a.867.867,0,0,1,1.73,0v3.372a.836.836,0,0,1-.865.8H23.009a.805.805,0,1,1,0-1.606h2.768Zm-27.8,0v3.372a.836.836,0,0,0,.865.8H2.478a.805.805,0,1,0,0-1.606H-.289V21.211a.836.836,0,0,0-.865-.8.836.836,0,0,0-.865.8ZM27.507,2.155V-1.217a.836.836,0,0,0-.865-.8H23.009a.836.836,0,0,0-.865.8.836.836,0,0,0,.865.8h2.768V2.155a.867.867,0,0,0,1.73,0Zm0,0" transform="translate(2.02 2.02)" fill="#24ac70" fill-rule="evenodd"/>
</svg>
