<svg xmlns="http://www.w3.org/2000/svg" width="18.506" height="21.999" viewBox="0 0 18.506 21.999">
    <g id="Group_3010" transform="translate(0 0)">
        <path id="Path_1454"
            d="M35.126,13.646A3.326,3.326,0,0,0,31.8,10.32H19.946a3.326,3.326,0,0,0-3.326,3.326V28.993a3.326,3.326,0,0,0,3.326,3.326H31.8a3.326,3.326,0,0,0,3.326-3.326ZM34.017,28.99A2.218,2.218,0,0,1,31.8,31.207H19.946a2.218,2.218,0,0,1-2.218-2.218V13.646a2.218,2.218,0,0,1,2.218-2.218H31.8a2.218,2.218,0,0,1,2.218,2.218Z"
            transform="translate(-16.62 -10.32)" />
        <path id="Path_1455"
            d="M58.736,28.69H53.954a.554.554,0,0,0,0,1.109h4.782a.554.554,0,0,0,0-1.109Z"
            transform="translate(-43.204 -23.598)" />
        <path id="Path_1456"
            d="M58.736,40.69H53.954a.554.554,0,0,0,0,1.109h4.782a.554.554,0,0,0,0-1.109Z"
            transform="translate(-43.204 -32.271)" />
        <path id="Path_1457"
            d="M39.221,58.69H26.954a.554.554,0,1,0,0,1.109H39.221a.554.554,0,1,0,0-1.109Z"
            transform="translate(-23.689 -45.281)" />
        <path id="Path_1458"
            d="M39.221,70.69H26.954a.554.554,0,1,0,0,1.109H39.221a.554.554,0,1,0,0-1.109Z"
            transform="translate(-23.689 -53.955)" />
        <path id="Path_1355"
            d="M120.98,3.081a1.54,1.54,0,1,0-1.54-1.54A1.542,1.542,0,0,0,120.98,3.081Zm0-2.738a1.2,1.2,0,1,1-1.2,1.2A1.2,1.2,0,0,1,120.98.342Z"
            transform="translate(-115.503 3.724)" fill="#2c2c2c" stroke="#2c2c2c"
            stroke-width="0.5" />
        <path id="Path_1356"
            d="M64.366,302H62.084A1.085,1.085,0,0,0,61,303.084v.685a.628.628,0,0,0,.628.628h3.195a.628.628,0,0,0,.628-.628v-.685A1.085,1.085,0,0,0,64.366,302Zm.742,1.769a.285.285,0,0,1-.285.285H61.628a.285.285,0,0,1-.285-.285v-.685a.743.743,0,0,1,.742-.742h2.282a.743.743,0,0,1,.742.742Z"
            transform="translate(-57.73 -294.323)" fill="#2c2c2c" stroke="#2c2c2c"
            stroke-width="0.5" />
    </g>
</svg>
