<svg xmlns="http://www.w3.org/2000/svg" width="17.105" height="18.514" viewBox="0 0 17.105 18.514"><path d="M211.315,141.935a1.4,1.4,0,0,1-1.866-.527l-.7-1.221a1.4,1.4,0,0,1,.481-1.882l.444-.272a1.171,1.171,0,0,0,.5-.9v-1.925a1.173,1.173,0,0,0-.5-.9l-.444-.272a1.4,1.4,0,0,1-.48-1.882l.7-1.221a1.4,1.4,0,0,1,1.87-.525l.457.248a1.174,1.174,0,0,0,1.033-.014l1.668-.962a1.171,1.171,0,0,0,.529-.887l.014-.52a1.4,1.4,0,0,1,1.389-1.358h1.41a1.4,1.4,0,0,1,1.389,1.353l.014.524a1.174,1.174,0,0,0,.528.888l1.668.963a1.173,1.173,0,0,0,1.033.014l.461-.25a1.4,1.4,0,0,1,1.866.527l.7,1.221a1.4,1.4,0,0,1-.481,1.882l-.444.272a1.171,1.171,0,0,0-.5.9v1.925a1.173,1.173,0,0,0,.5.9l.444.272a1.4,1.4,0,0,1,.48,1.882l-.7,1.221a1.4,1.4,0,0,1-1.87.525l-.457-.248a1.174,1.174,0,0,0-1.033.014l-1.668.962a1.171,1.171,0,0,0-.529.887l-.014.52a1.4,1.4,0,0,1-1.389,1.358h-1.41a1.4,1.4,0,0,1-1.389-1.353l-.014-.524a1.173,1.173,0,0,0-.528-.888l-1.668-.963a1.173,1.173,0,0,0-1.033-.014Zm3.766-2.246a4.063,4.063,0,1,0-1.487-5.551A4.063,4.063,0,0,0,215.081,139.689Z" transform="translate(-208.56 -126.913)" fill="#08f" fill-rule="evenodd"/></svg>