<svg xmlns="http://www.w3.org/2000/svg" width="18" height="21.892" viewBox="0 0 18 21.892"><path d="M157.145,28a3.66,3.66,0,0,0-3.649,3.649,3.593,3.593,0,0,0,.152,1.019L148.7,36.088a3.65,3.65,0,1,0,.007,5.709l4.941,3.421a3.6,3.6,0,0,0-.152,1.026,3.658,3.658,0,1,0,.836-2.318l-4.675-3.253a3.625,3.625,0,0,0-.007-3.451c1.709-1.088,2.96-2.172,4.682-3.253A3.647,3.647,0,1,0,157.145,28Zm0,1.46a2.189,2.189,0,1,1-2.189,2.189A2.178,2.178,0,0,1,157.145,29.46Zm-10.7,7.3a2.189,2.189,0,1,1-2.189,2.189A2.178,2.178,0,0,1,146.442,36.757Zm10.7,7.3a2.189,2.189,0,1,1-2.189,2.189A2.178,2.178,0,0,1,157.145,44.054Z" transform="translate(-142.793 -28)"/></svg>