<svg xmlns="http://www.w3.org/2000/svg" width="20.941" height="22.056" viewBox="0 0 20.941 22.056">
  <g id="Group_2497" transform="translate(0.1 0.104)">
    <path id="Path_1445" d="M18.127,3.9H13.179l2.5-2.5a.575.575,0,1,0-.813-.813L11.79,3.679,8.738.633a.575.575,0,1,0-.813.813l2.5,2.5H5.454A4.034,4.034,0,0,0,1.42,7.976v8.069a4.041,4.041,0,0,0,4.034,4.034H18.127a4.041,4.041,0,0,0,4.034-4.034V7.951A4.034,4.034,0,0,0,18.127,3.9ZM21.01,16a2.883,2.883,0,0,1-2.883,2.915H5.454a2.883,2.883,0,0,1-2.883-2.877V7.951A2.883,2.883,0,0,1,5.454,5.074H18.127A2.883,2.883,0,0,1,21.01,7.951Z" transform="translate(-1.42 -0.404)" fill="#2c2c2c" stroke="#2c2c2c" stroke-width="0.2"/>
    <path id="Path_1446" d="M19.043,33.66H12.125a.575.575,0,1,0,0,1.151h6.918a.575.575,0,1,0,0-1.151Z" transform="translate(-5.214 -12.859)" fill="#2c2c2c"/>
  </g>
</svg>
