<svg id="Group_3006" xmlns="http://www.w3.org/2000/svg" width="38.179" height="38.179"
    viewBox="0 0 38.179 38.179">
    <path id="Path_1572"
        d="M79.474,0A4.534,4.534,0,0,0,75,4.549a4.474,4.474,0,0,0,8.948,0A4.535,4.535,0,0,0,79.474,0Zm0,6.786a2.24,2.24,0,0,1-2.237-2.237,2.238,2.238,0,1,1,4.474,0A2.24,2.24,0,0,1,79.474,6.786Z"
        transform="translate(-69.407)" fill="#24ac70" />
    <path id="Path_1573"
        d="M34.823,0H19.015a3.359,3.359,0,0,0-3.356,3.356v7.633l-.983-.983A3.333,3.333,0,0,0,12.3,9.023H5.593A5.6,5.6,0,0,0,0,14.615v6.711A3.356,3.356,0,0,0,4.474,24.49V34.823a3.354,3.354,0,0,0,5.593,2.5,3.354,3.354,0,0,0,5.593-2.5V20.017a3.368,3.368,0,0,0,2.619-.163l3.766-1.883H34.823a3.359,3.359,0,0,0,3.356-3.356V3.356A3.359,3.359,0,0,0,34.823,0ZM21.752,15.616l-4.473,2.236a1.118,1.118,0,0,1-1.292-.209l-.655-.655a1.119,1.119,0,0,0-1.909.787s0,0,0,0V34.823a1.119,1.119,0,0,1-2.237,0V23.563a1.119,1.119,0,0,0-2.237,0v11.26a1.119,1.119,0,0,1-2.237,0V14.615a1.119,1.119,0,0,0-2.237,0v6.711a1.119,1.119,0,0,1-2.237,0c0-.843,0-6.022,0-6.711A3.359,3.359,0,0,1,5.593,11.26H12.3a1.111,1.111,0,0,1,.791.328l3.334,3.334a1.119,1.119,0,0,0,1.291.21l3.033-1.516a1.119,1.119,0,0,1,1,2Zm14.19-1a1.12,1.12,0,0,1-1.119,1.119H24.415c.007-.019.014-.038.021-.057a3.343,3.343,0,0,0,.148-1.476L30.7,11.142a1.119,1.119,0,1,0-1-2L23.583,12.2a3.353,3.353,0,0,0-3.832-.585l-1.855.927V3.356a1.12,1.12,0,0,1,1.119-1.119H34.823a1.12,1.12,0,0,1,1.119,1.119Z"
        fill="#24ac70" />
</svg>
