<svg xmlns="http://www.w3.org/2000/svg" width="25.231" height="33.061" viewBox="0 0 25.231 33.061">
    <g id="Group_3007" transform="translate(-3.739 0.1)">
        <path id="Path_1355"
            d="M128.1,17.329a8.665,8.665,0,1,0-8.665-8.665A8.674,8.674,0,0,0,128.1,17.329Zm0-15.4a6.739,6.739,0,1,1-6.739,6.739A6.739,6.739,0,0,1,128.1,1.925Z"
            transform="translate(-111.85)" fill="#24ac70" stroke="#24ac70" stroke-width="0.2" />
        <path id="Path_1356"
            d="M79.934,302H67.1a6.1,6.1,0,0,0-6.1,6.1v3.851a3.534,3.534,0,0,0,3.53,3.53H82.5a3.534,3.534,0,0,0,3.53-3.53V308.1a6.1,6.1,0,0,0-6.1-6.1Zm4.172,9.948a1.6,1.6,0,0,1-1.6,1.6H64.53a1.6,1.6,0,0,1-1.6-1.6V308.1a4.177,4.177,0,0,1,4.172-4.172H79.934a4.177,4.177,0,0,1,4.172,4.172Z"
            transform="translate(-57.161 -282.617)" fill="#24ac70" stroke="#24ac70"
            stroke-width="0.2" />
    </g>
</svg>
