<svg id="Group_3009" xmlns="http://www.w3.org/2000/svg" width="21.133" height="21.133"
    viewBox="0 0 21.133 21.133">
    <path id="Path_1443"
        d="M-28-78.5a1.641,1.641,0,0,0-1.633,1.633A1.633,1.633,0,0,0-28.5-75.324v1.182a5.967,5.967,0,0,0-3.459,1.477l-1.754-1.754a2.34,2.34,0,0,0,.346-1.213A2.376,2.376,0,0,0-35.736-78,2.374,2.374,0,0,0-38.1-75.633a2.376,2.376,0,0,0,2.367,2.369,2.348,2.348,0,0,0,1.342-.424l1.74,1.74a5.965,5.965,0,0,0-1.332,3.514h-1.4a1.633,1.633,0,0,0-1.543-1.133,1.641,1.641,0,0,0-1.633,1.633A1.641,1.641,0,0,0-36.934-66.3a1.634,1.634,0,0,0,1.543-1.133h1.441a5.968,5.968,0,0,0,1.5,3.277l-1.869,1.869a2.348,2.348,0,0,0-1.342-.424,2.376,2.376,0,0,0-2.367,2.369,2.374,2.374,0,0,0,2.367,2.367,2.376,2.376,0,0,0,2.369-2.367,2.34,2.34,0,0,0-.346-1.213l1.914-1.914A5.962,5.962,0,0,0-28.5-62.193v1.65A1.633,1.633,0,0,0-29.633-59,1.641,1.641,0,0,0-28-57.367,1.641,1.641,0,0,0-26.367-59,1.633,1.633,0,0,0-27.5-60.543v-1.65a5.959,5.959,0,0,0,3.205-1.266l1.9,1.9a2.34,2.34,0,0,0-.346,1.213,2.376,2.376,0,0,0,2.369,2.367A2.374,2.374,0,0,0-18-60.342a2.376,2.376,0,0,0-2.367-2.369,2.343,2.343,0,0,0-1.342.424l-1.855-1.855a5.969,5.969,0,0,0,1.514-3.291h1.441A1.634,1.634,0,0,0-19.066-66.3a1.641,1.641,0,0,0,1.633-1.633,1.641,1.641,0,0,0-1.633-1.633,1.633,1.633,0,0,0-1.543,1.133h-1.4a5.97,5.97,0,0,0-1.377-3.572l1.682-1.682a2.343,2.343,0,0,0,1.342.424A2.376,2.376,0,0,0-18-75.633,2.374,2.374,0,0,0-20.367-78a2.376,2.376,0,0,0-2.369,2.367,2.34,2.34,0,0,0,.346,1.213L-24.1-72.715a5.966,5.966,0,0,0-3.4-1.428v-1.182a1.633,1.633,0,0,0,1.133-1.543A1.641,1.641,0,0,0-28-78.5Zm0,1a.626.626,0,0,1,.633.633.624.624,0,0,1-.633.631.624.624,0,0,1-.633-.631A.626.626,0,0,1-28-77.5Zm-7.736.5a1.361,1.361,0,0,1,1.369,1.367,1.363,1.363,0,0,1-1.369,1.369A1.361,1.361,0,0,1-37.1-75.633,1.359,1.359,0,0,1-35.736-77Zm15.369,0A1.359,1.359,0,0,1-19-75.633a1.361,1.361,0,0,1-1.367,1.369,1.363,1.363,0,0,1-1.369-1.369A1.361,1.361,0,0,1-20.367-77ZM-28-73.168a4.958,4.958,0,0,1,3.23,1.209l.561.561A4.958,4.958,0,0,1-23-68.168a4.992,4.992,0,0,1-5,5,4.992,4.992,0,0,1-5-5,4.992,4.992,0,0,1,5-5Zm-8.934,4.6a.624.624,0,0,1,.631.633.624.624,0,0,1-.631.633.626.626,0,0,1-.633-.633A.626.626,0,0,1-36.934-68.566Zm17.867,0a.626.626,0,0,1,.633.633.626.626,0,0,1-.633.633.624.624,0,0,1-.631-.633A.624.624,0,0,1-19.066-68.566Zm-16.592,6.855a1.363,1.363,0,0,1,1.369,1.369,1.361,1.361,0,0,1-1.369,1.367,1.359,1.359,0,0,1-1.367-1.367A1.361,1.361,0,0,1-35.658-61.711Zm15.291,0A1.361,1.361,0,0,1-19-60.342a1.359,1.359,0,0,1-1.367,1.367,1.361,1.361,0,0,1-1.369-1.367A1.363,1.363,0,0,1-20.367-61.711ZM-28-59.631a.624.624,0,0,1,.633.631.626.626,0,0,1-.633.633A.626.626,0,0,1-28.633-59,.624.624,0,0,1-28-59.631Z"
        transform="translate(38.566 78.5)" fill="#2c2c2c" />
    <path id="Path_1355"
        d="M121.141,3.4a1.7,1.7,0,1,0-1.7-1.7A1.7,1.7,0,0,0,121.141,3.4Zm0-3.024A1.323,1.323,0,1,1,119.818,1.7,1.323,1.323,0,0,1,121.141.378Z"
        transform="translate(-110.686 6.682)" fill="#2c2c2c" stroke="#2c2c2c" stroke-width="0.5" />
    <path id="Path_1356"
        d="M64.717,302H62.2a1.2,1.2,0,0,0-1.2,1.2v.756a.694.694,0,0,0,.693.693h3.528a.694.694,0,0,0,.693-.693V303.2A1.2,1.2,0,0,0,64.717,302Zm.819,1.953a.315.315,0,0,1-.315.315H61.693a.315.315,0,0,1-.315-.315V303.2a.82.82,0,0,1,.819-.819h2.52a.82.82,0,0,1,.819.819Z"
        transform="translate(-52.982 -290.952)" fill="#2c2c2c" stroke="#2c2c2c"
        stroke-width="0.5" />
</svg>
