<svg xmlns="http://www.w3.org/2000/svg" width="26.914" height="28.078" viewBox="0 0 26.914 28.078"><g transform="translate(-104.725 -5.124)"><path d="M11.662,24.044H3.768A3.76,3.76,0,0,1,0,20.316V5.516A3.556,3.556,0,0,1,3.591,2.148V4.235a2.179,2.179,0,0,0,4.357,0v-2.1h6.174V4.233a2.179,2.179,0,0,0,4.357,0V2.144A3.955,3.955,0,0,1,21.07,3.163a3.187,3.187,0,0,1,1.069,2.356V12.58a8.682,8.682,0,0,0-1.639-.3V9.062H1.64V20.316a2.122,2.122,0,0,0,2.128,2.106h7.449a8.646,8.646,0,0,0,.444,1.621ZM16.25,5.211a1.066,1.066,0,0,1-1.065-1.065V1.065a1.065,1.065,0,0,1,2.129,0V4.146A1.066,1.066,0,0,1,16.25,5.211Zm-10.409,0A1.066,1.066,0,0,1,4.775,4.146V1.065a1.065,1.065,0,1,1,2.129,0V4.146A1.066,1.066,0,0,1,5.84,5.211Z" transform="translate(104.725 5.124)" fill="#fff"/><path d="M200.388,137.576a7.188,7.188,0,1,1,7.188-7.188A7.188,7.188,0,0,1,200.388,137.576Zm-1.438-8.364h-1.7a1.176,1.176,0,1,0,0,2.352h1.7a.261.261,0,0,1,.261.261v1.7a1.176,1.176,0,1,0,2.352,0v-1.7a.261.261,0,0,1,.261-.261h1.7a1.176,1.176,0,1,0,0-2.352h-1.7a.261.261,0,0,1-.261-.261v-1.7a1.176,1.176,0,1,0-2.352,0v1.7A.261.261,0,0,1,198.95,129.212Z" transform="translate(-75.937 -104.374)" fill="#fff" fill-rule="evenodd"/></g></svg>