<svg id="Group_2098" data-name="Group 2098" xmlns="http://www.w3.org/2000/svg" width="20.47" height="20.009" viewBox="0 0 20.47 20.009">
  <path id="Path_1357" data-name="Path 1357" d="M19.48,8.084A3.611,3.611,0,0,0,18.017,5.8a.475.475,0,0,0-.066-.168l-.958-1.389a3.655,3.655,0,0,0-4.05-1.462L4.924,5.167,4.793,5.2l-.446.132h0A3.655,3.655,0,0,0,2,8.749V18.984a3.655,3.655,0,0,0,3.655,3.655H15.89a3.655,3.655,0,0,0,3.655-3.655v-.8A3.655,3.655,0,0,0,22.47,14.6V11.673a3.655,3.655,0,0,0-2.99-3.589ZM13.361,4.2a2.193,2.193,0,0,1,2.427.892H10.341ZM15.89,21.177H5.655a2.193,2.193,0,0,1-2.193-2.193V8.749A2.193,2.193,0,0,1,4.8,6.731L5.253,6.6a1.835,1.835,0,0,1,.4-.044H15.89a2.193,2.193,0,0,1,2.062,1.462H12.966a3.655,3.655,0,0,0-3.655,3.655V14.6a3.655,3.655,0,0,0,3.655,3.655h5.117v.731a2.193,2.193,0,0,1-2.193,2.193Zm5.117-6.58a2.193,2.193,0,0,1-2.193,2.193H12.966A2.193,2.193,0,0,1,10.773,14.6V11.673A2.193,2.193,0,0,1,12.966,9.48h5.848a2.193,2.193,0,0,1,2.193,2.193Z" transform="translate(-2 -2.63)" fill="#24ac70"/>
  <path id="Path_1358" data-name="Path 1358" d="M18.059,13.5a2.559,2.559,0,1,0,2.559,2.559A2.559,2.559,0,0,0,18.059,13.5Zm0,3.655a1.1,1.1,0,1,1,1.1-1.1A1.1,1.1,0,0,1,18.059,17.155Z" transform="translate(-5.631 -5.554)" fill="#24ac70"/>
</svg>
